# xmcd
#
# Track frame offsets: 
#        150
#        20388
#        38205
#        54880
#        79832
#        100778
#        135358
#        153384
#        173325
#
# Disc length: 2594 seconds
#
# Revision: 0
# Processed by: cddbd v1.5.2PL0 Copyright (c) Steve Scherf et al.
# Submitted via: ExactAudioCopy v1.0b3
#
DISCID=5a0a2009
DTITLE=Erja Lyytinen - Forbidden Fruit
DYEAR=2013
DGENRE=Blues
TTITLE0=Joyful Misery
TTITLE1=Hold On Together
TTITLE2=At Least We Still Fight
TTITLE3=Forbidden Fruit
TTITLE4=Death Letter
TTITLE5=Change of Season
TTITLE6=Jealousy
TTITLE7=Press My Button
TTITLE8=Things Ablout Coming My Way
EXTD=
EXTT0=
EXTT1=
EXTT2=
EXTT3=
EXTT4=
EXTT5=
EXTT6=
EXTT7=
EXTT8=
PLAYORDER=
